
nColumns=19
nRows=36
DataType=double
version=3
OpenSimVersion=4.4-2022-10-11-798caa840
endheader
time	ground_force_calcn_r_vx	ground_force_calcn_r_vy	ground_force_calcn_r_vz	ground_force_calcn_r_px	ground_force_calcn_r_py	ground_force_calcn_r_pz	ground_force_calcn_r_mx	ground_force_calcn_r_my	ground_force_calcn_r_mz	ground_force_calcn_l_vx	ground_force_calcn_l_vy	ground_force_calcn_l_vz	ground_force_calcn_l_px	ground_force_calcn_l_py	ground_force_calcn_l_pz	ground_force_calcn_l_mx	ground_force_calcn_l_my	ground_force_calcn_l_mz
7.07	-3.3846	838.244	-19.3837	-0.228621	0	-0.463385	0.0201212	-4.9833	0.115235	-21.4744	393.551	32.0258	-0.187339	0	-0.866838	-0.330018	6.04808	0.492172
7.08	-4.05573	827.951	-21.4412	-0.228718	0	-0.463264	0.0220113	-4.49347	0.116366	-20.7221	384.623	32.1178	-0.188142	0	-0.866668	-0.320364	5.94629	0.496543
7.09	-4.61197	817.149	-23.3787	-0.228957	0	-0.463199	0.0225379	-3.99327	0.114247	-19.6679	375.108	31.9425	-0.18913	0	-0.866421	-0.306314	5.84206	0.497484
7.1	-5.00289	806.091	-25.1614	-0.229352	0	-0.463198	0.0216558	-3.48929	0.108915	-18.3452	365.203	31.5251	-0.190303	0	-0.8661	-0.288212	5.7375	0.495273
7.11	-5.19336	794.986	-26.7647	-0.229912	0	-0.463264	0.0195224	-2.98845	0.100612	-16.7957	355.09	30.8999	-0.191658	0	-0.865708	-0.266491	5.63406	0.490275
7.12	-5.1637	783.9930000000001	-28.1733	-0.230638	0	-0.463396	0.0164518	-2.49784	0.08976149999999999	-15.0661	344.929	30.1067	-0.193178	0	-0.865249	-0.241654	5.5325	0.482898
7.13	-4.90635	773.222	-29.3811	-0.231525	0	-0.46359	0.0128463	-2.02453	0.0769287	-13.2059	334.86	29.1871	-0.194842	0	-0.8647359999999999	-0.214262	5.43302	0.473553
7.14	-4.42197	762.753	-30.3917	-0.23256	0	-0.463841	0.0091314	-1.57509	0.0627592	-11.2673	324.997	28.1818	-0.196616	0	-0.864179	-0.184969	5.33533	0.462647
7.15	-3.71789	752.641	-31.2159	-0.233729	0	-0.464138	0.00570736	-1.15539	0.0479198	-9.305099999999999	315.429	27.1289	-0.198458	0	-0.8635930000000001	-0.154546	5.23886	0.450576
7.16	-2.80844	742.917	-31.869	-0.235007	0	-0.464472	0.00291262	-0.770477	0.0330513	-7.37355	306.222	26.0631	-0.200322	0	-0.862998	-0.123841	5.1431	0.437738
7.17	-1.71757	733.583	-32.3692	-0.236371	0	-0.464831	0.000993926	-0.424511	0.0187315	-5.52154	297.428	25.0148	-0.202157	0	-0.862409	-0.09370829999999999	5.04777	0.424536
7.18	-0.482806	724.619	-32.7365	-0.237793	0	-0.465203	8.03949e-05	-0.120661	0.00545116	-3.79025	289.087	24.0097	-0.203912	0	-0.861843	-0.06493790000000001	4.95289	0.411355
7.19	0.845028	715.996	-32.9919	-0.239244	0	-0.465578	0.000163942	0.138909	-0.00640068	-2.21258	281.229	23.0671	-0.20554	0	-0.861318	-0.0382256	4.85866	0.39852
7.2	2.20826	707.6950000000001	-33.1553	-0.240696	0	-0.465947	0.00110149	0.353	-0.0165379	-0.812624	273.874	22.1998	-0.206995	0	-0.8608440000000001	-0.0141393	4.7653	0.386267
7.21	3.54938	699.715	-33.246	-0.242124	0	-0.466303	0.00264502	0.521431	-0.0247751	0.393399	267.037	21.4148	-0.20824	0	-0.860433	0.00688461	4.67323	0.374765
7.22	4.81506	692.077	-33.281	-0.243507	0	-0.466639	0.00448787	0.64505	-0.0310195	1.39507	260.725	20.7164	-0.209247	0	-0.860092	0.0245226	4.58303	0.364153
7.23	5.95997	684.816	-33.2731	-0.244827	0	-0.466952	0.00631617	0.725745	-0.0352617	2.18755	254.946	20.1082	-0.209996	0	-0.859824	0.0385727	4.49541	0.354564
7.24	6.95142	677.962	-33.2309	-0.246071	0	-0.467242	0.007858830000000001	0.7664609999999999	-0.0375687	2.77328	249.705	19.5932	-0.210485	0	-0.859631	0.0489898	4.41102	0.346112
7.25	7.77127	671.537	-33.1601	-0.247229	0	-0.467507	0.008924700000000001	0.771208	-0.0380818	3.16253	245.009	19.174	-0.210721	0	-0.85951	0.0558967	4.33046	0.338895
7.26	8.41456	665.551	-33.0639	-0.248291	0	-0.467752	0.00941759	0.744886	-0.0370051	3.3717	240.856	18.8518	-0.210728	0	-0.859452	0.0595534	4.25418	0.332975
7.27	8.88734	660.005	-32.942	-0.249254	0	-0.467975	0.00933147	0.692988	-0.0345882	3.4209	237.238	18.6261	-0.210536	0	-0.85945	0.0603078	4.18234	0.328364
7.28	9.20377	654.883	-32.7907	-0.250115	0	-0.468181	0.008731259999999999	0.621262	-0.0311073	3.33096	234.144	18.4939	-0.210174	0	-0.859494	0.0585384	4.11485	0.325013
7.29	9.382289999999999	650.157	-32.6061	-0.250875	0	-0.468372	0.00772464	0.535288	-0.0268453	3.12059	231.554	18.4507	-0.209678	0	-0.859573	0.0545995	4.0514	0.322823
7.3	9.4428	645.793	-32.3855	-0.25154	0	-0.468553	0.00643259	0.439925	-0.0220615	2.80706	229.449	18.4904	-0.209082	0	-0.8596780000000001	0.0488324	3.99157	0.321665
7.31	9.40605	641.764	-32.128	-0.25212	0	-0.468726	0.00496755	0.33893	-0.0169675	2.40848	227.808	18.6062	-0.208422	0	-0.859796	0.0416015	3.93491	0.321383
7.32	9.29246	638.052	-31.8344	-0.252631	0	-0.468897	0.00341956	0.234799	-0.0117148	1.94385	226.612	18.7911	-0.207733	0	-0.859922	0.0332909	3.88102	0.321821
7.33	9.12175	634.6609999999999	-31.5071	-0.253091	0	-0.46907	0.0018524	0.128884	-0.0063983	1.4312	225.838	19.0374	-0.207051	0	-0.8600449999999999	0.0242707	3.82981	0.322841
7.34	8.913119999999999	631.6079999999999	-31.1503	-0.253521	0	-0.469247	0.000303663	0.0215184	-0.00106127	0.887093	225.458	19.3363	-0.206408	0	-0.860159	0.0148781	3.78132	0.324303
7.35	8.68351	628.919	-30.7712	-0.25394	0	-0.469435	-0.0012114	-0.0877382	0.00429278	0.327143	225.439	19.677	-0.205837	0	-0.860257	0.00542097	3.73566	0.32606
7.36	8.44501	626.621	-30.3804	-0.254363	0	-0.469635	-0.00269256	-0.199788	0.00968631	-0.233366	225.742	20.0481	-0.205366	0	-0.860333	-0.00381762	3.69289	0.327965
7.37	8.204700000000001	624.734	-29.9916	-0.254794	0	-0.469846	-0.00414613	-0.315701	0.0151559	-0.778905	226.322	20.4378	-0.205025	0	-0.860384	-0.0125719	3.65296	0.329876
7.38	7.96443	623.274	-29.6222	-0.255238	0	-0.470069	-0.00557766	-0.436493	0.0207451	-1.29373	227.136	20.8353	-0.204835	0	-0.860408	-0.0205937	3.61559	0.33166
7.39	7.71975	622.2430000000001	-29.2904	-0.255686	0	-0.470299	-0.0069839	-0.56293	0.0264984	-1.76334	228.143	21.2319	-0.204808	0	-0.860405	-0.0276727	3.58033	0.333199
7.4	7.46145	621.634	-29.0122	-0.256132	0	-0.470533	-0.008347439999999999	-0.695449	0.0324572	-2.17709	229.307	21.6208	-0.204946	0	-0.8603769999999999	-0.0336729	3.54667	0.334406
7.41	7.17821	621.442	-28.7977	-0.256569	0	-0.470766	-0.009636769999999999	-0.8342889999999999	0.0386611	-2.53134	230.591	21.9988	-0.205237	0	-0.860329	-0.0385756	3.51401	0.335244
7.42	6.85948	621.659	-28.6489	-0.25699	0	-0.470996	-0.0108095	-0.979644	0.0451466	-2.83065	231.954	22.3665	-0.205657	0	-0.860268	-0.0424902	3.48181	0.335738
